<svg data-v-0dd9719b="" version="1.0" xmlns="http://www.w3.org/2000/svg" xmlns:xlink="http://www.w3.org/1999/xlink" width="100%" height="100%" viewBox="0 0 340.000000 250.000000" preserveAspectRatio="xMidYMid meet" color-interpolation-filters="sRGB" style="margin: auto;"> <rect data-v-0dd9719b="" x="0" y="0" width="100%" height="100%" fill="#fff" fill-opacity="1" class="background"></rect> <rect data-v-0dd9719b="" x="0" y="0" width="100%" height="100%" fill="url(#watermark)" fill-opacity="1" class="watermarklayer"></rect> <g data-v-0dd9719b="" fill="#333" class="icon-text-wrapper icon-svg-group iconsvg" transform="translate(97.18000030517578,90.71036529541016)"><g class="iconsvg-imagesvg" transform="translate(0,0)"><g><rect fill="#333" fill-opacity="0" stroke-width="2" x="0" y="0" width="60" height="68.57926620185164" class="image-rect"></rect> <svg x="0" y="0" width="60" height="68.57926620185164" filtersec="colorsb3055996563" class="image-svg-svg primary" style="overflow: visible;"><svg xmlns="http://www.w3.org/2000/svg" viewBox="0 0 87.48999786376953 100"><path d="M43.73 48.5l5.75-3.32-23.2-13.39a11.24 11.24 0 0 1-8.28-.74c-2.77-1.6-2.77-4.18 0-5.78a11.06 11.06 0 0 1 10 0c2.24 1.29 2.67 3.25 1.27 4.79l23.2 13.39 9.89-5.71-23.19-13.39a11.24 11.24 0 0 1-8.29-.74c-2.77-1.6-2.77-4.18 0-5.78a11 11 0 0 1 10 0c2.24 1.3 2.67 3.25 1.28 4.79L65.37 36l9.89-5.71-23.2-13.38a11.31 11.31 0 0 1-8.3-.73c-2.77-1.6-2.76-4.2 0-5.79a11.08 11.08 0 0 1 10 0c2.24 1.29 2.66 3.25 1.26 4.79l23.2 13.39 7.49-4.32L43.73 0l-42 24.25z" fill="#0087ff"></path><path d="M42 51.5l-5.74-3.32V75a11.24 11.24 0 0 1 3.5 7.54c0 3.2-2.24 4.5-5 2.9a11.07 11.07 0 0 1-5-8.68c0-2.59 1.47-3.93 3.51-3.49V46.45l-9.89-5.71v26.79a11.25 11.25 0 0 1 3.51 7.54c0 3.2-2.24 4.5-5 2.9a11.07 11.07 0 0 1-5-8.68c0-2.58 1.48-3.93 3.51-3.49V39l-9.92-5.7v26.79A11.26 11.26 0 0 1 14 67.64c0 3.2-2.24 4.48-5 2.89a11.09 11.09 0 0 1-5-8.68c0-2.59 1.48-3.93 3.51-3.49V31.57L0 27.25v48.5L42 100z" fill="#2a3294"></path><path d="M45.46 51.5V100l5.75-3.32V67.89c-2 .44-3.51-.9-3.51-3.49a11.07 11.07 0 0 1 5-8.68c2.77-1.6 5-.3 5 2.9a11.25 11.25 0 0 1-3.51 7.54V95l9.89-5.71V60.45c-2 .44-3.51-.9-3.51-3.49a11.07 11.07 0 0 1 5-8.68c2.77-1.6 5-.3 5 2.9a11.25 11.25 0 0 1-3.51 7.54v28.79L77 81.8V53c-2 .44-3.52-.9-3.52-3.49a11.08 11.08 0 0 1 5-8.68c2.76-1.59 5-.31 5 2.89A11.27 11.27 0 0 1 80 51.28v28.79l7.49-4.32v-48.5z" fill="#ff006f"></path></svg></svg> <!----></g></g> <g transform="translate(67,8.059635162353516)"><g data-gra="path-name" fill-rule="" class="tp-name iconsvg-namesvg"><g transform="scale(1)"><g><path d="M10.72 5.66Q6.7 5.66 4.71 4.32 2.73 2.99 2.67 0.07L2.67 0.07Q2.67-0.58 3.38-0.58L3.38-0.58Q3.77-0.58 5.17-0.29 6.57 0 9.75 0L9.75 0Q17.16 0 23.17-2.05 29.19-4.09 32.63-7.41 36.08-10.72 36.08-14.43L36.08-14.43Q36.08-18.98 31.33-20.57 26.59-22.16 19.24-22.16L19.24-22.16 14.43-22.1Q13.46-18.79 12.71-15.99 11.96-13.2 11.38-11.12L11.38-11.12Q9.49-4.03 8.78-1.56L8.78-1.56Q6.83-1.56 5.4-2.6 3.97-3.64 3.97-5.13L3.97-5.13Q3.97-6.31 4.62-8.13L4.62-8.13 4.88-8.91 5.72-11.51Q12.94-34 18.07-43.94L18.07-43.94Q14.82-43.23 11.38-41.34L11.38-41.34Q11.05-41.21 10.46-40.92 9.88-40.63 9.62-40.63L9.62-40.63Q8.97-40.63 8-41.57 7.02-42.51 7.02-43.16L7.02-43.16Q11.51-44.98 15.05-45.89 18.59-46.8 23.4-46.8L23.4-46.8Q29.84-46.8 34.77-44.59 39.72-42.38 39.72-36.2L39.72-36.2Q39.72-31.2 35.78-28.24 31.85-25.29 26.13-23.92L26.13-23.92Q33.48-22.95 36.79-19.96 40.11-16.96 40.11-13.46L40.11-13.46Q40.11-7.54 35.2-3.19 30.29 1.17 23.37 3.41 16.45 5.66 10.72 5.66L10.72 5.66ZM15.08-24.57Q23.53-24.89 29.15-27.79 34.77-30.68 34.77-36.73L34.77-36.73Q34.77-44.52 22.55-44.52L22.55-44.52Q18.91-37.51 15.08-24.57L15.08-24.57ZM51.94 5.66Q47.91 5.66 45.92 4.32 43.94 2.99 43.88 0.07L43.88 0.07Q43.88-0.58 44.59-0.58L44.59-0.58Q44.98-0.58 46.38-0.29 47.77 0 50.96 0L50.96 0Q58.37 0 64.38-2.05 70.4-4.09 73.84-7.41 77.28-10.72 77.28-14.43L77.28-14.43Q77.28-18.98 72.54-20.57 67.8-22.16 60.45-22.16L60.45-22.16 55.64-22.1Q54.66-18.79 53.92-15.99 53.17-13.2 52.59-11.12L52.59-11.12Q50.7-4.03 49.98-1.56L49.98-1.56Q48.04-1.56 46.61-2.6 45.18-3.64 45.18-5.13L45.18-5.13Q45.18-6.31 45.83-8.13L45.83-8.13 46.09-8.91 46.93-11.51Q54.15-34 59.28-43.94L59.28-43.94Q56.03-43.23 52.59-41.34L52.59-41.34Q52.26-41.21 51.67-40.92 51.09-40.63 50.83-40.63L50.83-40.63Q50.18-40.63 49.2-41.57 48.23-42.51 48.23-43.16L48.23-43.16Q52.72-44.98 56.26-45.89 59.8-46.8 64.61-46.8L64.61-46.8Q71.05-46.8 75.98-44.59 80.93-42.38 80.93-36.2L80.93-36.2Q80.93-31.2 76.99-28.24 73.06-25.29 67.34-23.92L67.34-23.92Q74.69-22.95 78-19.96 81.31-16.96 81.31-13.46L81.31-13.46Q81.31-7.54 76.41-3.19 71.5 1.17 64.58 3.41 57.66 5.66 51.94 5.66L51.94 5.66ZM56.29-24.57Q64.74-24.89 70.36-27.79 75.98-30.68 75.98-36.73L75.98-36.73Q75.98-44.52 63.77-44.52L63.77-44.52Q60.13-37.51 56.29-24.57L56.29-24.57Z" transform="translate(-2.6700000762939453, 46.79999923706055)"></path></g> <!----> <!----> <!----> <!----> <!----> <!----> <!----></g></g> <!----></g></g><defs v-gra="od"></defs></svg>